<?xml version="1.0" encoding="UTF-8"?>
<svg version="1.1" xmlns="http://www.w3.org/2000/svg" width="1000" height="1000">
<path d="M0 0 C330 0 660 0 1000 0 C1000 330 1000 660 1000 1000 C670 1000 340 1000 0 1000 C0 670 0 340 0 0 Z " fill="#3A4F3A" transform="translate(0,0)"/>
<path d="M0 0 C0.99 0.66 1.98 1.32 3 2 C2.34346042 7.25231661 0.96028396 10.77257612 -1 16 C10.22 16 21.44 16 33 16 C33 25.57 33 35.14 33 45 C42.9 45 52.8 45 63 45 C63 53.91 63 62.82 63 72 C53.1 72 43.2 72 33 72 C33.05112713 79.26005315 33.11417951 86.51799201 33.20751953 93.77734375 C33.2356756 96.24472174 33.25691668 98.71218903 33.27099609 101.1796875 C33.29249902 104.73483826 33.33919018 108.28892139 33.390625 111.84375 C33.39246796 113.48796936 33.39246796 113.48796936 33.39434814 115.16540527 C33.52131022 121.86469708 34.36815931 126.31380145 38 132 C41.49930644 134.33287096 43.04631638 134.29793546 47.1875 134.3125 C48.81751953 134.33763672 48.81751953 134.33763672 50.48046875 134.36328125 C54.77370912 133.92013879 58.01986275 132.6486033 62 131 C63.3196608 134.22628592 64.62944528 137.45649304 65.9375 140.6875 C66.31068359 141.59951172 66.68386719 142.51152344 67.06835938 143.45117188 C67.42607422 144.33740234 67.78378906 145.22363281 68.15234375 146.13671875 C68.6472229 147.35427856 68.6472229 147.35427856 69.15209961 148.59643555 C70.01772244 151.05023824 70.55173421 153.43990426 71 156 C56.52860576 163.91831006 40.86349233 165.32264881 24.9296875 161.03125 C16.15254846 157.94169706 9.22547025 152.73562685 4 145 C0.66983422 137.96321493 -1.13078332 130.98327685 -1.11352539 123.19995117 C-1.11341209 121.48874336 -1.11341209 121.48874336 -1.11329651 119.7429657 C-1.10813522 118.52196671 -1.10297394 117.30096771 -1.09765625 116.04296875 C-1.0962413 114.78486893 -1.09482635 113.5267691 -1.09336853 112.23054504 C-1.08872573 108.89821471 -1.07975228 105.56595368 -1.06866455 102.23364258 C-1.05840503 98.82829394 -1.05380628 95.42293791 -1.04882812 92.01757812 C-1.03865963 85.34501322 -1.01908266 78.6725692 -1 72 C-11.89 72 -22.78 72 -34 72 C-34 101.37 -34 130.74 -34 161 C-45.55 161 -57.1 161 -69 161 C-69 131.63 -69 102.26 -69 72 C-74.94 72 -80.88 72 -87 72 C-87 101.37 -87 130.74 -87 161 C-98.22 161 -109.44 161 -121 161 C-121 122.06 -121 83.12 -121 43 C-109.78 43 -98.56 43 -87 43 C-87 43.66 -87 44.32 -87 45 C-80.73 45 -74.46 45 -68 45 C-68.0825 42.421875 -68.165 39.84375 -68.25 37.1875 C-68.3797186 24.82413822 -64.65210268 16.14429862 -56.2578125 7.12890625 C-42.0198795 -6.60685899 -17.4867257 -7.80352254 0 0 Z " fill="#A3C69C" transform="translate(807,416)"/>
<path d="M0 0 C11.22 0 22.44 0 34 0 C34 9.57 34 19.14 34 29 C43.9 29 53.8 29 64 29 C64 37.91 64 46.82 64 56 C54.1 56 44.2 56 34 56 C34.05112713 63.26005315 34.11417951 70.51799201 34.20751953 77.77734375 C34.2356756 80.24472174 34.25691668 82.71218903 34.27099609 85.1796875 C34.29249902 88.73483826 34.33919018 92.28892139 34.390625 95.84375 C34.39246796 97.48796936 34.39246796 97.48796936 34.39434814 99.16540527 C34.52131022 105.86469708 35.36815931 110.31380145 39 116 C42.49930644 118.33287096 44.04631638 118.29793546 48.1875 118.3125 C49.81751953 118.33763672 49.81751953 118.33763672 51.48046875 118.36328125 C55.77370912 117.92013879 59.01986275 116.6486033 63 115 C64.3196608 118.22628592 65.62944528 121.45649304 66.9375 124.6875 C67.31068359 125.59951172 67.68386719 126.51152344 68.06835938 127.45117188 C68.42607422 128.33740234 68.78378906 129.22363281 69.15234375 130.13671875 C69.6472229 131.35427856 69.6472229 131.35427856 70.15209961 132.59643555 C71.01772244 135.05023824 71.55173421 137.43990426 72 140 C57.52860576 147.91831006 41.86349233 149.32264881 25.9296875 145.03125 C17.15254846 141.94169706 10.22547025 136.73562685 5 129 C1.66983422 121.96321493 -0.13078332 114.98327685 -0.11352539 107.19995117 C-0.11344986 106.05914597 -0.11337433 104.91834076 -0.11329651 103.7429657 C-0.10813522 102.52196671 -0.10297394 101.30096771 -0.09765625 100.04296875 C-0.09553383 98.15581902 -0.09553383 98.15581902 -0.09336853 96.23054504 C-0.08872573 92.89821471 -0.07975228 89.56595368 -0.06866455 86.23364258 C-0.05840503 82.82829383 -0.05386121 79.4229379 -0.04882812 76.01757812 C-0.03780829 69.34503055 -0.02054835 62.67252476 0 56 C-6.27 56 -12.54 56 -19 56 C-19 85.37 -19 114.74 -19 145 C-29.56 145 -40.12 145 -51 145 C-51.33 140.71 -51.66 136.42 -52 132 C-53.2375 133.216875 -54.475 134.43375 -55.75 135.6875 C-60.9911266 140.35086461 -66.41273377 142.74957848 -73 145 C-74.2375 145.433125 -75.475 145.86625 -76.75 146.3125 C-90.99349636 149.39859088 -106.72522053 146.73976242 -119 139 C-130.79422265 130.43628566 -136.3213792 118.67946689 -138.58538818 104.61340332 C-139.3937149 97.5687164 -139.2425601 90.50178164 -139.1953125 83.421875 C-139.19157346 81.75750907 -139.18873071 80.09314091 -139.18673706 78.42877197 C-139.17917062 74.08874224 -139.15958385 69.74885046 -139.1373291 65.40887451 C-139.11308247 60.17988434 -139.10405635 54.95084754 -139.09242249 49.72181702 C-139.07315405 41.81444929 -139.03478321 33.90738312 -139 26 C-127.45 26 -115.9 26 -104 26 C-103.97421875 30.99769531 -103.9484375 35.99539063 -103.921875 41.14453125 C-103.89667793 44.33012782 -103.87032321 47.51563212 -103.83984375 50.70117188 C-103.79168318 55.74601464 -103.74757359 60.79064355 -103.72900391 65.83569336 C-103.71374504 69.9078768 -103.67913886 73.9794968 -103.63169098 78.05142784 C-103.61697153 79.5969214 -103.60896446 81.14249544 -103.60811615 82.68805885 C-103.59684758 92.93376635 -103.13373966 102.48834712 -96.75 111 C-89.97027405 115.93070978 -83.27973418 116.860998 -75 116 C-68.89700211 114.76600826 -64.36067383 112.56349587 -60 108 C-53.74897967 98.38621956 -53.67737363 88.11757525 -53.5859375 77 C-53.5671994 75.55410693 -53.54762407 74.10822449 -53.5272522 72.66235352 C-53.47620363 68.88135076 -53.43643317 65.10031265 -53.39910889 61.31915283 C-53.35181031 56.76926953 -53.29033082 52.21955786 -53.23126221 47.66981506 C-53.14338294 40.77994704 -53.07338118 33.89010633 -53 27 C-41.45 27 -29.9 27 -18 27 C-18 27.66 -18 28.32 -18 29 C-12.06 29 -6.12 29 0 29 C0 19.43 0 9.86 0 0 Z " fill="#A3C69C" transform="translate(388,432)"/>
<path d="M0 0 C1.18916016 0.36738281 1.18916016 0.36738281 2.40234375 0.7421875 C13.23491221 4.51439162 21.56736502 11.92939739 27 22 C30.37820466 30.24982295 32.15794308 37.91532553 32.11352539 46.81958008 C32.11367142 47.59084229 32.11381744 48.36210449 32.1139679 49.15673828 C32.11327378 51.694365 32.10550492 54.23191742 32.09765625 56.76953125 C32.09579029 58.53358419 32.09436723 60.29763764 32.09336853 62.06169128 C32.08955738 66.6960494 32.07973909 71.33037599 32.06866455 75.96472168 C32.0566179 81.52979633 32.05204151 87.09488155 32.04621124 92.65996552 C32.03652657 101.10666558 32.0173602 109.55329651 32 118 C20.45 118 8.9 118 -3 118 C-3.04898438 112.88371094 -3.09796875 107.76742187 -3.1484375 102.49609375 C-3.18384048 99.24672552 -3.21980997 95.99738321 -3.2578125 92.74804688 C-3.31802219 87.5953348 -3.3761812 82.44265883 -3.421875 77.28979492 C-3.45886328 73.13348772 -3.50525927 68.97738049 -3.55806351 64.82124519 C-3.57653572 63.23893825 -3.59166991 61.65658855 -3.60334396 60.07421684 C-3.62032998 57.85062237 -3.64939298 55.62747875 -3.68115234 53.40405273 C-3.69447601 52.14052475 -3.70779968 50.87699677 -3.7215271 49.57518005 C-4.13959619 44.20779149 -5.12008092 39.34829574 -8.75 35.25 C-9.21921875 34.69828125 -9.6884375 34.1465625 -10.171875 33.578125 C-14.98713005 29.42136637 -19.67142498 28.49805199 -25.875 28.625 C-26.58317871 28.63442627 -27.29135742 28.64385254 -28.02099609 28.65356445 C-35.32815496 28.86481726 -41.01897972 30.32677691 -46.6171875 35.34375 C-52.07942701 41.88609337 -54.09584676 49.28435348 -54.20532227 57.60449219 C-54.21522186 58.25856552 -54.22512146 58.91263885 -54.23532104 59.58653259 C-54.26680851 61.73994374 -54.29164272 63.89337692 -54.31640625 66.046875 C-54.33698681 67.54332032 -54.35798357 69.03975996 -54.37937927 70.53619385 C-54.43448618 74.46852009 -54.48394547 78.40089781 -54.53222656 82.33331299 C-54.59137338 87.0549226 -54.65753855 91.77643845 -54.72252655 96.49797058 C-54.82039283 103.6652563 -54.9093467 110.83260307 -55 118 C-66.22 118 -77.44 118 -89 118 C-89 79.06 -89 40.12 -89 0 C-78.44 0 -67.88 0 -57 0 C-57 4.29 -57 8.58 -57 13 C-55.576875 11.783125 -54.15375 10.56625 -52.6875 9.3125 C-38.36426323 -2.11776663 -17.58406763 -5.98752988 0 0 Z " fill="#A4C79D" transform="translate(205,459)"/>
<path d="M0 0 C1.17957275 0.00870117 2.35914551 0.01740234 3.57446289 0.02636719 C12.25818776 0.17222173 20.25215864 0.93851349 28.625 3.375 C29.74261719 3.69984375 30.86023438 4.0246875 32.01171875 4.359375 C36.95950924 5.91115489 41.23370861 7.5848654 45.625 10.375 C45.03415596 13.89555917 44.1094458 16.80861222 42.55859375 20.01953125 C41.9543457 21.28120117 41.9543457 21.28120117 41.33789062 22.56835938 C40.91701172 23.43267578 40.49613281 24.29699219 40.0625 25.1875 C39.42538086 26.51297852 39.42538086 26.51297852 38.77539062 27.86523438 C37.73028576 30.03764337 36.68003238 32.20739957 35.625 34.375 C32.05326377 33.69883364 28.88238333 32.77530833 25.5 31.4375 C16.79746929 28.25928493 8.59531978 27.19356354 -0.625 27.0625 C-1.38176025 27.04477539 -2.13852051 27.02705078 -2.91821289 27.00878906 C-9.19661182 27.01706554 -13.66574089 28.47851862 -18.875 32.125 C-20.70435324 34.41833595 -20.70435324 34.41833595 -20.375 37.9375 C-19.25278713 41.79510674 -18.67926247 42.35184926 -15.375 44.375 C-13.12914175 45.17629358 -13.12914175 45.17629358 -10.69921875 45.65625 C-9.34449463 45.95704468 -9.34449463 45.95704468 -7.96240234 46.26391602 C-7.00543457 46.46557373 -6.0484668 46.66723145 -5.0625 46.875 C-4.07717285 47.09148193 -3.0918457 47.30796387 -2.07666016 47.53100586 C3.51763945 48.75011257 9.12538992 49.86864886 14.75 50.9375 C28.21875983 53.61046226 39.63093328 57.58757041 47.625 69.375 C51.4960603 76.74592304 50.69699563 87.64083551 48.90234375 95.56640625 C45.40109507 104.85109404 39.12004033 110.54005683 30.625 115.375 C6.80197578 125.85271898 -20.60566357 124.82565726 -44.75 115.8125 C-48.7221134 114.17975797 -52.54798294 112.32237594 -56.375 110.375 C-55.8421171 104.46484421 -53.390992 99.74385509 -50.8125 94.5 C-50.38775391 93.62085938 -49.96300781 92.74171875 -49.52539062 91.8359375 C-48.48203441 89.67888644 -47.43178116 87.52549712 -46.375 85.375 C-42.62996651 85.97903766 -39.64591866 87.07738335 -36.25 88.75 C-22.1544617 95.32285209 -4.39949179 98.47765759 10.625 93.375 C14.01073879 92.03852416 14.51023432 91.54714852 16.625 88.375 C17.125 85.375 17.125 85.375 16.625 82.375 C10.24344007 76.64002984 1.28226732 76.12093484 -6.875 75 C-23.2265731 72.70259555 -39.00344726 69.93297089 -49.93359375 56.4921875 C-55.29646559 48.61501532 -55.59344162 39.00535314 -53.90625 29.82421875 C-51.11296852 20.19737364 -44.16123294 12.85524893 -35.71875 7.77734375 C-24.28921597 1.6565275 -12.8657801 -0.15923683 0 0 Z " fill="#A3C69C" transform="translate(632.375,456.625)"/>
<path d="M0 0 C0 10.23 0 20.46 0 31 C-2.43375 31.0825 -4.8675 31.165 -7.375 31.25 C-16.6968493 31.74926681 -24.52930969 33.76993474 -31.53125 40.29296875 C-36.90777692 46.54175136 -38.09609391 53.49833803 -38.20532227 61.53442383 C-38.22526749 62.83539505 -38.24521271 64.13636627 -38.26576233 65.47676086 C-38.28274289 66.8868498 -38.29962183 68.29693996 -38.31640625 69.70703125 C-38.33699375 71.15720692 -38.35799068 72.60737682 -38.37937927 74.05754089 C-38.43441455 77.86326415 -38.48390511 81.66903989 -38.53222656 85.47485352 C-38.59143952 90.04714411 -38.65756486 94.61933937 -38.72252655 99.19155121 C-38.82030258 106.12764228 -38.90931806 113.06379621 -39 120 C-50.55 120 -62.1 120 -74 120 C-74 80.73 -74 41.46 -74 1 C-63.11 1 -52.22 1 -41 1 C-40.505 7.93 -40.505 7.93 -40 15 C-38.1128125 13.1746875 -38.1128125 13.1746875 -36.1875 11.3125 C-25.32514122 1.66276303 -14.21612865 0 0 0 Z " fill="#A3C59C" transform="translate(535,457)"/>
<path d="M0 0 C11.55 0 23.1 0 35 0 C35 39.27 35 78.54 35 119 C23.45 119 11.9 119 0 119 C0 79.73 0 40.46 0 0 Z " fill="#A2C59B" transform="translate(538,458)"/>
<path d="M0 0 C11.22 0 22.44 0 34 0 C34 38.94 34 77.88 34 118 C22.78 118 11.56 118 0 118 C0 79.06 0 40.12 0 0 Z " fill="#A5C89E" transform="translate(686,459)"/>
<path d="M0 0 C4.94402225 2.23247516 8.5126697 5.86920042 11.515625 10.34765625 C13.33272341 15.79895149 13.33453717 21.22311075 11.015625 26.53515625 C8.06718499 31.81909892 3.20682614 35.4505892 -2.484375 37.34765625 C-10.15712905 37.98792711 -17.17845721 38.21905246 -23.484375 33.34765625 C-27.06844839 29.91062177 -30.10047884 26.01260986 -30.8203125 21.015625 C-30.91768076 14.83274033 -30.20398595 11.33976568 -26.484375 6.34765625 C-18.99997381 -1.17676847 -10.3105121 -2.70732 0 0 Z " fill="#A3C69C" transform="translate(564.484375,404.65234375)"/>
<path d="M0 0 C4.25351182 2.64011078 7.46673772 5.89723045 9.5 10.5 C10.3546965 15.88246884 10.07249812 20.68147656 8.4375 25.875 C4.72777166 30.90108355 0.50140483 34.57286267 -5.5 36.5 C-12.93991942 37.41553413 -19.30379149 37.12557871 -25.69140625 33 C-29.79903991 29.59323688 -32.16647225 25.44933828 -32.7734375 20.08203125 C-33.02475195 13.2288794 -32.17713722 8.66433901 -27.5 3.5 C-19.91359624 -2.41739493 -9.02030266 -3.97593923 0 0 Z " fill="#A3C69C" transform="translate(714.5,405.5)"/>
<path d="M0 0 C0.33 0 0.66 0 1 0 C1 9.24 1 18.48 1 28 C-10.22 28 -21.44 28 -33 28 C-33 15.24137931 -33 15.24137931 -30 11 C-25.15290821 6.62579521 -22.20927977 5.67127866 -15.8203125 5.69921875 C-11.18277518 6.19380375 -7.17902114 8.00829631 -3 10 C-2.87625 9.0925 -2.7525 8.185 -2.625 7.25 C-2.07890323 4.41029677 -1.42736197 2.47409409 0 0 Z " fill="#3C513C" transform="translate(805,433)"/>
</svg>
